# xmcd CD database file
#
# Track frame offsets:
#	150
#	15376
#	23813
#
# Disc length: 557 seconds
#
# Revision: 0
# Processed by: cddbd v1.5.2PL0 Copyright (c) Steve Scherf et al.
# Submitted via: CDex 1.70beta2
#
DISCID=14022b03
DTITLE=Kinder des Mondes - Tänzer auf dem Seil
DYEAR=1900
DGENRE=Country
TTITLE0=Tänzer auf dem Seil
TTITLE1=Jumping Strings (instrumental)
TTITLE2=Johnny ist gegangen
EXTD=
EXTT0=
EXTT1=
EXTT2=
PLAYORDER=
